<?xml version="1.0" standalone="no"?>
<!DOCTYPE svg PUBLIC "-//W3C//DTD SVG 20010904//EN"
 "http://www.w3.org/TR/2001/REC-SVG-20010904/DTD/svg10.dtd">
<svg version="1.0" xmlns="http://www.w3.org/2000/svg"
 width="300.000000pt" height="108.000000pt" viewBox="0 0 300.000000 108.000000"
 preserveAspectRatio="xMidYMid meet">
<metadata>
Created by potrace 1.10, written by Peter Selinger 2001-2011
</metadata>
<g transform="translate(0.000000,108.000000) scale(0.100000,-0.100000)"
fill="#000000" stroke="none">
<path d="M2003 893 c-54 -19 -138 -94 -165 -147 -11 -22 -22 -43 -24 -45 -2
-2 -20 11 -40 28 -59 53 -103 62 -190 40 -28 -7 -63 -28 -95 -57 -27 -24 -51
-43 -53 -41 -1 2 -15 21 -30 41 -37 50 -98 73 -163 62 -26 -4 -77 -9 -113 -10
-36 -2 -74 -3 -85 -4 -11 0 -35 2 -53 6 -47 9 -76 -15 -117 -97 -35 -68 -55
-81 -55 -36 0 39 -21 98 -42 119 -18 18 -29 20 -83 15 -69 -7 -107 9 -98 41 6
25 -34 72 -62 72 -16 0 -34 -13 -52 -37 -15 -20 -39 -47 -53 -60 -63 -58 -70
-67 -70 -81 0 -9 9 -26 21 -38 21 -22 21 -24 5 -117 -24 -139 -22 -154 19
-193 33 -31 39 -33 91 -29 99 7 163 71 117 116 -11 11 -32 21 -48 23 -16 2
-30 7 -32 12 -1 5 5 43 15 84 17 72 18 74 52 81 19 4 39 4 44 -1 10 -10 45
-165 53 -236 5 -46 3 -53 -18 -68 -13 -9 -34 -16 -47 -16 -29 0 -72 -45 -72
-76 0 -24 51 -74 76 -74 31 0 91 33 132 73 54 51 101 120 176 255 32 57 60
102 62 100 4 -5 -4 -54 -39 -239 -26 -142 -23 -164 27 -178 60 -16 115 26 116
89 0 41 13 50 77 54 73 6 127 31 178 83 26 26 39 34 42 25 13 -33 66 -81 109
-97 40 -15 56 -16 103 -7 69 12 127 45 146 83 14 26 13 30 -10 57 -21 25 -23
31 -9 36 32 12 42 5 69 -50 46 -95 143 -143 256 -129 66 9 118 34 176 88 43
39 47 41 57 23 49 -83 96 -110 196 -110 126 -1 222 59 247 154 25 94 -31 169
-153 205 -61 18 -83 38 -64 60 23 27 73 18 113 -20 31 -30 40 -34 69 -29 45 9
78 41 78 75 0 37 -52 96 -105 120 -112 51 -288 -10 -320 -111 -9 -28 -22 -25
-39 8 -57 106 -195 151 -323 105z m202 -38 c48 -20 84 -64 101 -122 40 -138
-60 -325 -194 -363 -106 -29 -216 9 -260 90 -21 39 -23 55 -19 120 5 88 30
151 82 208 74 82 190 109 290 67z m473 1 c37 -19 69 -56 77 -87 6 -23 3 -27
-26 -33 -47 -9 -59 -8 -59 9 0 8 -9 24 -20 35 -28 28 -117 28 -147 0 -59 -54
-35 -98 70 -128 86 -25 133 -59 142 -102 7 -34 -10 -96 -34 -124 -41 -47 -154
-77 -235 -62 -48 9 -93 49 -107 97 -7 21 -10 41 -8 43 2 2 23 7 47 11 40 6 42
6 42 -18 0 -38 43 -67 99 -67 57 0 92 17 109 53 19 40 -4 73 -60 87 -84 21
-128 42 -154 73 -22 27 -25 38 -21 80 5 59 30 94 87 124 51 27 154 32 198 9z
m-2123 -52 c-3 -26 -9 -53 -12 -62 -5 -12 2 -14 45 -10 29 3 52 2 52 -1 -1
-40 -14 -51 -60 -51 l-49 0 -11 -57 c-7 -32 -18 -86 -25 -120 -7 -34 -9 -67
-5 -73 5 -7 26 -11 56 -8 38 2 49 0 52 -13 4 -20 -62 -49 -111 -49 -80 0 -91
39 -57 205 11 53 20 101 20 106 0 5 -14 9 -31 9 -24 0 -30 3 -25 16 3 9 6 20
6 25 0 5 10 9 23 9 28 0 63 34 78 77 6 20 19 33 32 36 12 2 24 5 26 6 2 0 0
-20 -4 -45z m229 -187 c9 -62 16 -124 16 -139 0 -45 15 -32 47 40 100 221 93
210 132 215 20 2 38 3 40 1 6 -5 -138 -274 -191 -356 -53 -83 -123 -154 -162
-164 -43 -10 -61 -2 -64 34 -3 30 -1 32 30 32 37 0 92 29 107 57 8 16 -16 156
-65 373 -5 24 -4 25 44 22 l49 -4 17 -111z m369 91 l-6 -33 24 21 c53 47 114
57 169 29 61 -32 76 -129 36 -227 -47 -112 -186 -175 -258 -118 l-25 19 -12
-77 c-7 -42 -13 -84 -14 -92 -2 -16 -87 -28 -87 -13 0 5 18 100 40 211 45 226
46 235 25 252 -24 20 -18 29 33 44 75 23 83 21 75 -16z m567 17 c42 -21 62
-66 58 -127 l-3 -50 -127 1 -128 2 0 -39 c0 -59 30 -92 84 -92 23 0 59 9 81
20 50 25 57 25 53 -2 -2 -15 -20 -31 -57 -50 -153 -80 -285 22 -237 185 38
128 176 204 276 152z m662 -103 c22 -30 70 -59 127 -76 29 -9 60 -21 68 -27
23 -20 -12 -49 -58 -49 -33 0 -42 5 -61 35 -27 40 -54 55 -92 48 -25 -5 -27
-3 -22 23 2 16 5 37 5 47 1 22 16 22 33 -1z m-672 -124 c0 -15 -70 -39 -104
-36 -24 2 -32 8 -34 26 -3 22 -1 23 67 21 39 -1 71 -6 71 -11z"/>
<path d="M2045 795 c-72 -26 -125 -121 -125 -225 0 -99 35 -140 120 -140 75 0
116 27 153 101 85 171 2 319 -148 264z m125 -67 c34 -57 19 -153 -34 -214 -27
-31 -39 -37 -82 -41 -46 -5 -53 -3 -72 22 -41 52 -25 169 32 230 30 31 39 35
85 35 47 0 53 -3 71 -32z"/>
<path d="M1180 661 c-30 -16 -37 -26 -52 -82 -23 -89 -22 -132 1 -153 25 -23
84 -23 117 -1 59 38 91 189 50 234 -24 26 -70 27 -116 2z m88 -78 c5 -85 -38
-143 -95 -128 -24 6 -25 9 -19 53 14 100 39 134 91 129 17 -2 20 -10 23 -54z"/>
<path d="M1588 680 c-16 -10 -58 -70 -58 -84 0 -3 41 -6 90 -6 l90 0 0 28 c0
45 -26 72 -68 72 -20 0 -45 -5 -54 -10z"/>
</g>
</svg>
